<svg width="242" height="44" viewBox="0 0 242 44" fill="none" xmlns="http://www.w3.org/2000/svg">
<path d="M43.6493 32.9349V6.64469C43.6486 4.89979 42.9582 3.22658 41.7298 1.99299C40.5014 0.759392 38.8356 0.0664061 37.0987 0.0664063H10.9141L43.6493 32.9349Z" fill="url(#paint0_linear_38_142)"/>
<path d="M43.6493 11.0225V37.3127C43.6486 39.0576 42.9582 40.7308 41.7298 41.9644C40.5014 43.198 38.8356 43.891 37.0987 43.891H10.9141L43.6493 11.0225Z" fill="url(#paint1_linear_38_142)"/>
<path d="M0 11.0222V37.3125C0.000332073 38.1767 0.170096 39.0324 0.4996 39.8307C0.829105 40.6289 1.3119 41.3542 1.92041 41.9651C2.52892 42.5759 3.25124 43.0604 4.04612 43.3908C4.841 43.7212 5.69288 43.8911 6.55311 43.8908H32.7428L0 11.0222Z" fill="url(#paint2_linear_38_142)"/>
<path d="M0 32.9349V6.64469C0.000332073 5.78048 0.170096 4.9248 0.4996 4.12651C0.829105 3.32821 1.3119 2.60294 1.92041 1.99209C2.52892 1.38124 3.25124 0.896778 4.04612 0.56637C4.841 0.235961 5.69288 0.066073 6.55311 0.0664067H10.9134L21.8243 11.0226L0 32.9349Z" fill="url(#paint3_linear_38_142)"/>
<path d="M69.9224 8.13074C71.3052 8.10807 72.676 8.39236 73.9369 8.96334C75.1978 9.53432 76.3176 10.3779 77.2165 11.4339C79.1741 13.6359 80.1529 16.3818 80.1529 19.6713C80.1529 22.9609 79.1741 25.7076 77.2165 27.9113C76.3191 28.9703 75.2 29.817 73.939 30.3911C72.6781 30.9651 71.3066 31.2524 69.9224 31.2322C67.2785 31.2322 65.2164 30.3573 63.736 28.6075V30.6224H56.5V0H63.7183V10.7555C65.2232 9.00988 67.2667 8.13074 69.9224 8.13074ZM65.0006 23.1218C65.8981 23.9642 67.0805 24.4327 68.3088 24.4327C69.537 24.4327 70.7194 23.9642 71.6169 23.1218C72.047 22.66 72.3805 22.1163 72.5977 21.5227C72.815 20.9292 72.9114 20.2979 72.8815 19.6662C72.9103 19.0354 72.8133 18.4052 72.5961 17.8127C72.379 17.2201 72.046 16.6772 71.6169 16.2158C70.7194 15.3734 69.537 14.9048 68.3088 14.9048C67.0805 14.9048 65.8981 15.3734 65.0006 16.2158C64.5716 16.6772 64.2387 17.2202 64.0216 17.8128C63.8044 18.4053 63.7073 19.0355 63.736 19.6662C63.7079 20.2977 63.8053 20.9285 64.0224 21.5218C64.2395 22.1151 64.572 22.659 65.0006 23.1218Z" fill="white"/>
<path d="M97.0779 8.75586H104.319V30.6072H97.0779V28.4221C95.7728 30.2972 93.7554 31.2357 91.0256 31.2374C89.9469 31.271 88.8736 31.0716 87.8783 30.6525C86.883 30.2334 85.9889 29.6045 85.2565 28.8083C83.7626 27.1889 83.0156 24.8649 83.0156 21.8362V8.75586H90.244V20.9062C90.2086 21.3758 90.2695 21.8477 90.4231 22.2927C90.5767 22.7376 90.8196 23.1461 91.1368 23.4928C91.4559 23.7884 91.8297 24.0181 92.237 24.1687C92.6415 24.3173 93.0714 24.3838 93.5016 24.3643C93.9876 24.3933 94.4742 24.3177 94.9287 24.1424C95.3832 23.9671 95.7952 23.6962 96.137 23.348C96.8076 22.5173 97.1409 21.4627 97.0703 20.3955L97.0779 8.75586Z" fill="white"/>
<path d="M129.998 30.6072H121.904L115.703 21.2975V30.6072H108.484V0H115.713V17.8826L121.328 8.73547H129.692L122.377 19.6612L129.998 30.6072Z" fill="white"/>
<g opacity="0.75">
<path opacity="0.75" d="M56.6938 38.0079H60.3508V38.6527H57.3865V40.4845H60.1547V41.1292H57.3865V43.2067H60.5036V43.8617H56.6836L56.6938 38.0079Z" fill="white"/>
<path opacity="0.75" d="M64.2066 38.0079H64.8535L67.3288 43.8668H66.5241L65.9383 42.4315H63.0224L62.4214 43.8617H61.6395L64.2066 38.0079ZM64.5198 38.9008L63.3102 41.7714H65.6837L64.5198 38.9008Z" fill="white"/>
<path opacity="0.75" d="M71.5997 39.0385C71.4935 38.8567 71.3319 38.7141 71.1387 38.6317C70.9502 38.545 70.7451 38.5005 70.5377 38.5012C70.3864 38.5016 70.2358 38.5214 70.0895 38.5601C69.9476 38.5956 69.8125 38.6544 69.6897 38.734C69.5724 38.8112 69.4755 38.9156 69.407 39.0385C69.3335 39.175 69.2967 39.3285 69.3 39.4837C69.2973 39.6034 69.3181 39.7225 69.3612 39.8342C69.4052 39.9419 69.4741 40.0375 69.5623 40.113C69.6767 40.2077 69.8046 40.2845 69.9418 40.3407C70.1309 40.4254 70.3248 40.4988 70.5224 40.5608C70.7491 40.6298 70.9681 40.7066 71.1795 40.7885C71.3792 40.8648 71.5663 40.9709 71.7347 41.1031C71.8992 41.2296 72.0326 41.3924 72.1243 41.579C72.2235 41.8125 72.2721 42.0646 72.2669 42.3184C72.2606 42.5718 72.2017 42.821 72.0938 43.0501C71.9797 43.2505 71.8253 43.4248 71.6404 43.5618C71.4424 43.7061 71.2197 43.8128 70.9834 43.8765C70.5683 43.9897 70.1334 44.0089 69.7101 43.9328C69.5359 43.9047 69.3652 43.8584 69.2007 43.7946C69.0443 43.7288 68.897 43.6428 68.7627 43.5388C68.6253 43.4344 68.5057 43.3083 68.4087 43.1653L68.9995 42.6536C69.1144 42.8716 69.2919 43.0498 69.5089 43.1653C69.7315 43.2719 69.9752 43.327 70.2219 43.3264C70.3746 43.326 70.5264 43.3036 70.6727 43.2599C70.8174 43.2213 70.9538 43.1563 71.0751 43.068C71.1962 42.9843 71.2979 42.8752 71.373 42.7482C71.4522 42.6173 71.4928 42.4665 71.4902 42.3133C71.497 42.1604 71.4655 42.0082 71.3985 41.8707C71.3297 41.7508 71.2326 41.6498 71.1158 41.5765C70.968 41.4823 70.8088 41.4075 70.6421 41.3539L69.9698 41.1262C69.7721 41.065 69.5797 40.988 69.3943 40.8959C69.2249 40.8163 69.0693 40.7101 68.9333 40.5812C68.8047 40.4539 68.7018 40.3027 68.6303 40.1361C68.5533 39.9372 68.5161 39.7251 68.5207 39.5118C68.5139 39.2586 68.5709 39.0078 68.6863 38.7826C68.7962 38.5817 68.9483 38.4071 69.132 38.2709C69.3233 38.1309 69.5368 38.0245 69.7635 37.9563C70.3018 37.8011 70.8748 37.8172 71.4036 38.0023C71.688 38.1149 71.9388 38.299 72.132 38.537L71.5997 39.0385Z" fill="white"/>
<path opacity="0.75" d="M75.5268 41.331L73.3646 38.005H74.2432L75.8909 40.6479L77.5794 38.005H78.4173L76.2246 41.331V43.8613H75.5369L75.5268 41.331Z" fill="white"/>
<path opacity="0.75" d="M82.8046 38.0079H84.5872C84.825 38.0088 85.0621 38.0328 85.2952 38.0796C85.5126 38.1257 85.7209 38.2079 85.9115 38.3226C86.0902 38.4356 86.2402 38.5889 86.3496 38.7704C86.4698 38.9735 86.5298 39.207 86.5227 39.4432C86.5325 39.7496 86.4342 40.0495 86.2451 40.2901C86.0516 40.5209 85.7919 40.6861 85.5015 40.7634C85.6787 40.7772 85.8516 40.825 86.0108 40.9041C86.1686 40.9806 86.311 41.0856 86.4311 41.2137C86.5517 41.3414 86.646 41.4918 86.7086 41.6563C86.7752 41.8292 86.8081 42.0133 86.8054 42.1987C86.8194 42.4621 86.7583 42.724 86.6293 42.9538C86.5003 43.1836 86.3087 43.3716 86.0771 43.4958C85.8492 43.6212 85.6022 43.7077 85.3462 43.7516C85.079 43.8007 84.8079 43.8255 84.5363 43.8258H82.8046V38.0079ZM83.4718 40.4845H84.4243C84.5854 40.4855 84.7464 40.4735 84.9056 40.4487C85.0541 40.4302 85.1982 40.3852 85.3309 40.3157C85.4545 40.2465 85.5588 40.147 85.6339 40.0265C85.722 39.8712 85.7619 39.6931 85.7485 39.5149C85.7594 39.3711 85.7283 39.2273 85.6591 39.1009C85.5899 38.9746 85.4856 38.8713 85.3589 38.8036C85.2334 38.7357 85.0974 38.6898 84.9565 38.668C84.8058 38.6433 84.6533 38.6313 84.5007 38.6322H83.482L83.4718 40.4845ZM83.4718 43.2067H84.6382C84.8094 43.207 84.9801 43.189 85.1475 43.153C85.306 43.1193 85.4582 43.0606 85.5983 42.979C85.7318 42.9045 85.8433 42.7959 85.9217 42.6643C86.0107 42.5241 86.0542 42.3596 86.0465 42.1936C86.053 42.0153 86.0116 41.8386 85.9268 41.6819C85.8514 41.5473 85.7437 41.4339 85.6136 41.3518C85.4779 41.2649 85.3264 41.2058 85.1679 41.1778C85.0003 41.1435 84.8296 41.1272 84.6586 41.1292H83.4718V43.2067Z" fill="white"/>
<path opacity="0.75" d="M91.4229 43.9998C91.0044 44.0042 90.589 43.926 90.2005 43.7695C89.8426 43.6214 89.5166 43.405 89.2404 43.1325C88.9633 42.8534 88.7465 42.5198 88.6037 42.1526C88.4527 41.763 88.3774 41.3478 88.3822 40.9297C88.3792 40.51 88.4543 40.0935 88.6037 39.7016C88.7486 39.3378 88.9652 39.0071 89.2404 38.7294C89.514 38.453 89.8406 38.2354 90.2005 38.0898C90.9855 37.7853 91.8552 37.7853 92.6402 38.0898C93.0016 38.2354 93.3299 38.453 93.6054 38.7294C93.8778 39.0084 94.0924 39.3388 94.237 39.7016C94.3907 40.0924 94.4677 40.5095 94.4637 40.9297C94.4679 41.3482 94.3909 41.7636 94.237 42.1526C94.0935 42.5182 93.8788 42.8513 93.6054 43.1325C93.3269 43.4045 92.9993 43.6207 92.6402 43.7695C92.2535 43.9261 91.8398 44.0044 91.4229 43.9998ZM91.4229 43.3551C91.7425 43.36 92.0594 43.2963 92.3525 43.1683C92.6274 43.0494 92.8753 42.8753 93.0808 42.6566C93.2879 42.4349 93.4489 42.174 93.5545 41.8891C93.7761 41.2794 93.7761 40.6106 93.5545 40.001C93.4469 39.717 93.2861 39.4565 93.0808 39.2334C92.8653 39.0058 92.6051 38.8254 92.3168 38.7038C92.0252 38.5835 91.7127 38.5226 91.3974 38.5248C91.0822 38.527 90.7705 38.5922 90.4806 38.7166C90.2056 38.8353 89.9577 39.0095 89.7523 39.2283C89.5498 39.4535 89.3893 39.7135 89.2786 39.9958C89.057 40.6055 89.057 41.2743 89.2786 41.884C89.3882 42.1669 89.5488 42.4271 89.7523 42.6515C89.9578 42.8702 90.2057 43.0443 90.4806 43.1632C90.7743 43.2966 91.093 43.3655 91.4153 43.3653L91.4229 43.3551Z" fill="white"/>
<path opacity="0.75" d="M99.0181 43.9998C98.6012 44.0042 98.1875 43.926 97.8008 43.7695C97.4416 43.6207 97.1141 43.4045 96.8356 43.1325C96.5631 42.8507 96.3485 42.5177 96.204 42.1526C96.0501 41.7636 95.9731 41.3482 95.9773 40.9297C95.9746 40.5096 96.0515 40.0928 96.204 39.7016C96.3486 39.3388 96.5632 39.0084 96.8356 38.7294C97.111 38.453 97.4394 38.2354 97.8008 38.0898C98.5858 37.7853 99.4555 37.7853 100.24 38.0898C100.601 38.2363 100.929 38.4547 101.203 38.7317C101.477 39.0087 101.693 39.3386 101.837 39.7016C101.99 40.0926 102.066 40.5096 102.061 40.9297C102.066 41.3481 101.99 41.7635 101.837 42.1526C101.694 42.5198 101.478 42.8534 101.201 43.1325C100.924 43.405 100.598 43.6214 100.24 43.7695C99.8521 43.9264 99.4367 44.0047 99.0181 43.9998ZM99.0181 43.3551C99.3393 43.3602 99.6579 43.2965 99.9527 43.1683C100.228 43.0494 100.476 42.8753 100.681 42.6566C100.885 42.4328 101.046 42.1725 101.155 41.8891C101.379 41.2798 101.379 40.6102 101.155 40.001C101.044 39.7186 100.884 39.4586 100.681 39.2334C100.476 39.0146 100.228 38.8404 99.9527 38.7217C99.6586 38.5934 99.3413 38.5272 99.0206 38.5272C98.6999 38.5272 98.3827 38.5934 98.0885 38.7217C97.8146 38.8411 97.5676 39.0152 97.3627 39.2334C97.1558 39.4557 96.9941 39.7164 96.8865 40.001C96.6649 40.6106 96.6649 41.2794 96.8865 41.8891C96.992 42.1746 97.154 42.4357 97.3627 42.6566C97.5668 42.8758 97.814 43.05 98.0885 43.1683C98.3817 43.2967 98.6983 43.3621 99.0181 43.3602V43.3551Z" fill="white"/>
<path opacity="0.75" d="M103.914 38.0074H104.599V40.5351H104.701L107.347 37.9971H108.365L105.488 40.6605L108.511 43.8611H107.492L104.678 40.8882H104.576V43.8611H103.891L103.914 38.0074Z" fill="white"/>
<path opacity="0.75" d="M109.83 38.0079H110.52V43.8617H109.83V38.0079Z" fill="white"/>
<path opacity="0.75" d="M112.705 38.0079H113.576L116.946 42.8536V38.0079H117.633V43.8617H116.811L113.441 39.0006V43.8617H112.754L112.705 38.0079Z" fill="white"/>
<path opacity="0.75" d="M124.792 43.4572C124.464 43.6391 124.113 43.7751 123.748 43.8614C123.38 43.9505 123.003 43.9952 122.625 43.9944C122.197 44.0002 121.772 43.9247 121.372 43.7718C121.008 43.6314 120.675 43.4192 120.394 43.1476C120.113 42.8719 119.892 42.5397 119.747 42.1728C119.591 41.7754 119.513 41.3514 119.518 40.9243C119.513 40.4937 119.595 40.0664 119.757 39.6681C119.913 39.3027 120.141 38.9728 120.427 38.6985C120.725 38.4287 121.071 38.2171 121.446 38.0742C121.836 37.9257 122.251 37.852 122.668 37.8567C123.044 37.8548 123.418 37.9127 123.776 38.0281C124.136 38.1466 124.461 38.3502 124.726 38.6217L124.217 39.1641C124.018 38.9414 123.771 38.7665 123.496 38.6524C123.222 38.5366 122.927 38.4766 122.63 38.4759C122.311 38.4733 121.995 38.5351 121.701 38.6575C121.421 38.7778 121.168 38.9516 120.954 39.1692C120.741 39.3898 120.574 39.6507 120.463 39.9367C120.229 40.5609 120.229 41.2493 120.463 41.8735C120.577 42.1623 120.751 42.4238 120.972 42.641C121.187 42.8657 121.447 43.0404 121.736 43.1527C122.048 43.2766 122.381 43.3383 122.717 43.3344C122.965 43.3349 123.213 43.3057 123.455 43.2474C123.7 43.1931 123.938 43.1071 124.161 42.9915V41.2006H122.824V40.5866H124.843L124.792 43.4572Z" fill="white"/>
<path opacity="0.75" d="M129.738 39.0387C129.633 38.8565 129.472 38.7137 129.279 38.6319C129.091 38.5455 128.886 38.501 128.678 38.5014C128.526 38.5016 128.375 38.5214 128.228 38.5603C128.083 38.5984 127.947 38.6607 127.823 38.7445C127.699 38.8248 127.598 38.9362 127.53 39.0677C127.462 39.1992 127.43 39.3461 127.436 39.4941C127.433 39.6136 127.453 39.7324 127.494 39.8446C127.54 39.9519 127.61 40.0473 127.698 40.1235C127.812 40.2182 127.94 40.2949 128.077 40.3512C128.266 40.4362 128.46 40.5097 128.658 40.5712C128.885 40.6403 129.101 40.717 129.315 40.7989C129.515 40.8759 129.702 40.9819 129.87 41.1136C130.034 41.2408 130.167 41.4035 130.26 41.5895C130.358 41.8232 130.405 42.0749 130.4 42.3283C130.395 42.5817 130.337 42.8311 130.229 43.0606C130.115 43.2616 129.96 43.436 129.774 43.5723C129.575 43.7064 129.354 43.8042 129.122 43.8614C128.707 43.9746 128.272 43.9938 127.848 43.9176C127.674 43.8897 127.503 43.8434 127.339 43.7795C127.182 43.7121 127.035 43.6262 126.898 43.5236C126.761 43.4199 126.642 43.2936 126.547 43.1501L127.138 42.6384C127.258 42.8593 127.443 43.0379 127.667 43.1501C127.89 43.2558 128.134 43.3108 128.381 43.3113C128.532 43.3109 128.683 43.2885 128.829 43.2448C128.974 43.2067 129.112 43.1417 129.234 43.0529C129.354 42.9678 129.455 42.859 129.532 42.7331C129.611 42.6012 129.651 42.4496 129.649 42.2956C129.654 42.1436 129.623 41.9926 129.557 41.8555C129.487 41.7381 129.392 41.6377 129.279 41.5613C129.119 41.4666 128.948 41.3919 128.77 41.3387L128.1 41.111C127.902 41.0498 127.709 40.9729 127.522 40.8808C127.354 40.8032 127.201 40.6967 127.069 40.5661C126.937 40.4408 126.832 40.2892 126.761 40.1209C126.683 39.9222 126.645 39.7101 126.649 39.4966C126.656 39.243 126.728 38.9955 126.858 38.7777C126.965 38.5758 127.117 38.4009 127.301 38.266C127.492 38.126 127.706 38.0196 127.932 37.9513C128.471 37.7962 129.045 37.8123 129.575 37.9974C129.858 38.1106 130.107 38.2936 130.301 38.5296L129.738 39.0387Z" fill="white"/>
</g>
<rect x="144" width="98" height="43" rx="21.5" fill="url(#paint4_linear_38_142)"/>
<path d="M164.763 28L169.407 15.4H171.495L176.103 28H174.087L173.007 24.922H167.859L166.779 28H164.763ZM168.399 23.41H172.467L170.433 17.668L168.399 23.41ZM177.86 28V15.4H179.768V26.488H185.492V28H177.86ZM187.546 28V15.4H191.956C192.94 15.4 193.756 15.568 194.404 15.904C195.052 16.228 195.532 16.678 195.844 17.254C196.168 17.818 196.33 18.46 196.33 19.18C196.33 19.864 196.174 20.494 195.862 21.07C195.562 21.634 195.088 22.084 194.44 22.42C193.792 22.756 192.964 22.924 191.956 22.924H189.454V28H187.546ZM189.454 21.358H191.866C192.766 21.358 193.408 21.166 193.792 20.782C194.188 20.386 194.386 19.852 194.386 19.18C194.386 18.484 194.188 17.944 193.792 17.56C193.408 17.164 192.766 16.966 191.866 16.966H189.454V21.358ZM198.216 28V15.4H200.124V20.8H206.226V15.4H208.134V28H206.226V22.366H200.124V28H198.216ZM209.886 28L214.53 15.4H216.618L221.226 28H219.21L218.13 24.922H212.982L211.902 28H209.886ZM213.522 23.41H217.59L215.556 17.668L213.522 23.41Z" fill="white"/>
<defs>
<linearGradient id="paint0_linear_38_142" x1="27.2804" y1="32.9349" x2="27.2804" y2="0.0664062" gradientUnits="userSpaceOnUse">
<stop stop-color="#A736E7"/>
<stop offset="1" stop-color="#5500E7"/>
</linearGradient>
<linearGradient id="paint1_linear_38_142" x1="44.4966" y1="11.5128" x2="21.999" y2="50.3186" gradientUnits="userSpaceOnUse">
<stop stop-color="#A4DC66"/>
<stop offset="1" stop-color="#43DC66"/>
</linearGradient>
<linearGradient id="paint2_linear_38_142" x1="19.3609" y1="22.2477" x2="6.30397" y2="44.7661" gradientUnits="userSpaceOnUse">
<stop stop-color="#05F3FF"/>
<stop offset="1" stop-color="#0068FF"/>
</linearGradient>
<linearGradient id="paint3_linear_38_142" x1="14.3101" y1="2.03557" x2="-2.6942" y2="31.3731" gradientUnits="userSpaceOnUse">
<stop stop-color="#A4DC66"/>
<stop offset="1" stop-color="#43DC66"/>
</linearGradient>
<linearGradient id="paint4_linear_38_142" x1="242" y1="43" x2="139.492" y2="21.0698" gradientUnits="userSpaceOnUse">
<stop stop-color="#2F69FF"/>
<stop offset="1" stop-color="#C856FF"/>
</linearGradient>
</defs>
</svg>
