<svg width="134" height="44" viewBox="0 0 134 44" fill="none" xmlns="http://www.w3.org/2000/svg">
<g clip-path="url(#clip0_119_84)">
<path d="M44.9924 32.9672V6.65115C44.9917 4.90453 44.2801 3.22968 43.0139 1.99488C41.7477 0.760072 40.0306 0.0664061 38.2403 0.0664063H11.25L44.9924 32.9672Z" fill="url(#paint0_linear_119_84)"/>
<path d="M44.9924 11.0332V37.3493C44.9917 39.0959 44.2801 40.7707 43.0139 42.0055C41.7477 43.2403 40.0306 43.934 38.2403 43.934H11.25L44.9924 11.0332Z" fill="url(#paint1_linear_119_84)"/>
<path d="M0 11.0331V37.3492C0.000342291 38.2142 0.175329 39.0707 0.514972 39.8698C0.854615 40.6689 1.35226 41.3949 1.9795 42.0063C2.60674 42.6178 3.35128 43.1027 4.17062 43.4334C4.98995 43.7642 5.86804 43.9342 6.75475 43.9339H33.7503L0 11.0331Z" fill="url(#paint2_linear_119_84)"/>
<path d="M0 32.9672V6.65115C0.000342291 5.78609 0.175329 4.92957 0.514972 4.1305C0.854615 3.33142 1.35226 2.60543 1.9795 1.99398C2.60673 1.38253 3.35128 0.897594 4.17062 0.566861C4.98995 0.236127 5.86804 0.0660727 6.75475 0.0664067H11.2492L22.4958 11.0333L0 32.9672Z" fill="url(#paint3_linear_119_84)"/>
<path d="M72.0736 8.13873C73.4991 8.11603 74.912 8.4006 76.2117 8.97214C77.5114 9.54368 78.6657 10.3881 79.5922 11.4451C81.6101 13.6493 82.619 16.3978 82.619 19.6906C82.619 22.9834 81.6101 25.7328 79.5922 27.9387C78.6672 28.9987 77.5136 29.8463 76.2139 30.4209C74.9142 30.9955 73.5004 31.2831 72.0736 31.2629C69.3485 31.2629 67.2229 30.3871 65.6969 28.6356V30.6525H58.2383V0H65.6787V10.766C67.2298 9.01873 69.3363 8.13873 72.0736 8.13873ZM67.0004 23.1445C67.9255 23.9877 69.1443 24.4567 70.4104 24.4567C71.6764 24.4567 72.8952 23.9877 73.8203 23.1445C74.2637 22.6823 74.6074 22.138 74.8313 21.5439C75.0552 20.9497 75.1547 20.3178 75.1238 19.6855C75.1536 19.0541 75.0535 18.4233 74.8297 17.8302C74.6058 17.237 74.2627 16.6935 73.8203 16.2317C72.8952 15.3885 71.6764 14.9195 70.4104 14.9195C69.1443 14.9195 67.9255 15.3885 67.0004 16.2317C66.5582 16.6936 66.2151 17.2371 65.9913 17.8302C65.7674 18.4234 65.6674 19.0542 65.6969 19.6855C65.668 20.3176 65.7683 20.949 65.9921 21.5429C66.2159 22.1368 66.5587 22.6812 67.0004 23.1445V23.1445Z" fill="white"/>
<path d="M100.065 8.76465H107.529V30.6375H100.065V28.4502C98.72 30.3272 96.6405 31.2665 93.8267 31.2682C92.7149 31.3019 91.6086 31.1022 90.5826 30.6828C89.5567 30.2633 88.6351 29.6338 87.8801 28.8368C86.3403 27.2158 85.5703 24.8895 85.5703 21.8578V8.76465H93.0211V20.927C92.9846 21.397 93.0474 21.8694 93.2057 22.3147C93.364 22.7601 93.6144 23.169 93.9414 23.5161C94.2703 23.812 94.6556 24.0419 95.0755 24.1926C95.4924 24.3414 95.9355 24.408 96.379 24.3885C96.8799 24.4175 97.3814 24.3417 97.8499 24.1663C98.3184 23.9908 98.7431 23.7197 99.0955 23.3711C99.7867 22.5396 100.13 21.484 100.057 20.4157L100.065 8.76465Z" fill="white"/>
<path d="M133.999 30.6372H125.657L119.265 21.3184V30.6372H111.824V0H119.275V17.9001L125.063 8.74405H133.684L126.144 19.6805L133.999 30.6372Z" fill="white"/>
<g opacity="0.75">
<path opacity="0.75" d="M58.4401 38.0438H62.1838V38.6847H59.1492V40.5057H61.983V41.1467H59.1492V43.2119H62.3402V43.8629H58.4297L58.4401 38.0438Z" fill="white"/>
<path opacity="0.75" d="M66.1279 38.0439H66.79L69.3241 43.8682H68.5002L67.9006 42.4414H64.9156L64.3004 43.8631H63.5L66.1279 38.0439ZM66.4485 38.9316L65.2102 41.7852H67.6399L66.4485 38.9316Z" fill="white"/>
<path opacity="0.75" d="M73.7041 39.0685C73.5953 38.8878 73.4299 38.7461 73.2322 38.6641C73.0392 38.578 72.8292 38.5337 72.617 38.5344C72.4621 38.5348 72.3079 38.5545 72.1581 38.5929C72.0129 38.6283 71.8746 38.6867 71.7488 38.7659C71.6288 38.8426 71.5295 38.9464 71.4594 39.0685C71.3842 39.2043 71.3465 39.3568 71.35 39.5111C71.3472 39.6301 71.3685 39.7485 71.4125 39.8595C71.4576 39.9666 71.5282 40.0616 71.6185 40.1367C71.7355 40.2309 71.8665 40.3072 72.0069 40.3631C72.2005 40.4472 72.399 40.5203 72.6013 40.5818C72.8333 40.6505 73.0575 40.7268 73.2739 40.8082C73.4783 40.8841 73.6699 40.9896 73.8422 41.121C74.0107 41.2467 74.1472 41.4086 74.2411 41.5941C74.3426 41.8262 74.3924 42.0768 74.3871 42.3291C74.3807 42.581 74.3203 42.8288 74.2098 43.0565C74.0931 43.2557 73.935 43.4289 73.7458 43.5652C73.543 43.7086 73.3151 43.8147 73.0732 43.878C72.6483 43.9905 72.2031 44.0097 71.7697 43.934C71.5915 43.906 71.4167 43.86 71.2483 43.7966C71.0881 43.7312 70.9374 43.6457 70.7999 43.5423C70.6592 43.4386 70.5368 43.3131 70.4375 43.171L71.0423 42.6623C71.1599 42.879 71.3416 43.0562 71.5637 43.171C71.7917 43.277 72.0411 43.3318 72.2937 43.3312C72.4499 43.3308 72.6053 43.3085 72.7551 43.2651C72.9033 43.2267 73.0429 43.162 73.167 43.0743C73.291 42.9911 73.3951 42.8826 73.4721 42.7564C73.5531 42.6262 73.5947 42.4763 73.592 42.324C73.599 42.172 73.5667 42.0207 73.4981 41.884C73.4277 41.7649 73.3283 41.6644 73.2087 41.5915C73.0574 41.498 72.8945 41.4236 72.7238 41.3703L72.0356 41.1439C71.8332 41.0831 71.6362 41.0065 71.4464 40.915C71.2731 40.8359 71.1138 40.7303 70.9745 40.6022C70.8429 40.4755 70.7375 40.3253 70.6643 40.1596C70.5855 39.962 70.5474 39.7511 70.5522 39.539C70.5452 39.2874 70.6035 39.038 70.7217 38.8142C70.8342 38.6144 70.9899 38.4409 71.1779 38.3055C71.3737 38.1663 71.5923 38.0606 71.8244 37.9927C72.3755 37.8385 72.962 37.8545 73.5033 38.0385C73.7945 38.1504 74.0512 38.3334 74.2489 38.57L73.7041 39.0685Z" fill="white"/>
<path opacity="0.75" d="M77.7212 41.3474L75.5078 38.041H76.4072L78.094 40.6683L79.8224 38.041H80.6801L78.4355 41.3474V43.8627H77.7316L77.7212 41.3474Z" fill="white"/>
<path opacity="0.75" d="M85.168 38.0439H86.9929C87.2362 38.0448 87.479 38.0687 87.7176 38.1152C87.9402 38.1611 88.1534 38.2427 88.3485 38.3568C88.5314 38.4691 88.685 38.6215 88.7969 38.8019C88.92 39.0039 88.9815 39.2359 88.9742 39.4708C88.9842 39.7753 88.8835 40.0735 88.69 40.3126C88.4919 40.542 88.2261 40.7063 87.9288 40.7831C88.1101 40.7969 88.2871 40.8444 88.4502 40.923C88.6116 40.9991 88.7574 41.1034 88.8803 41.2308C89.0038 41.3578 89.1004 41.5073 89.1645 41.6708C89.2327 41.8426 89.2663 42.0257 89.2636 42.21C89.2779 42.4718 89.2153 42.7322 89.0833 42.9606C88.9512 43.189 88.7551 43.376 88.518 43.4994C88.2847 43.6241 88.0319 43.7101 87.7698 43.7538C87.4962 43.8025 87.2188 43.8272 86.9407 43.8275H85.168V38.0439ZM85.851 40.5059H86.826C86.991 40.5069 87.1557 40.495 87.3187 40.4703C87.4708 40.4519 87.6183 40.4072 87.7541 40.3381C87.8807 40.2693 87.9874 40.1704 88.0643 40.0507C88.1545 39.8963 88.1953 39.7191 88.1817 39.542C88.1928 39.3991 88.161 39.2561 88.0901 39.1305C88.0193 39.0049 87.9125 38.9022 87.7828 38.8349C87.6544 38.7674 87.5151 38.7218 87.3709 38.7001C87.2166 38.6755 87.0605 38.6636 86.9042 38.6645H85.8614L85.851 40.5059ZM85.851 43.212H87.045C87.2203 43.2124 87.3951 43.1945 87.5664 43.1586C87.7287 43.1252 87.8844 43.0668 88.0279 42.9857C88.1645 42.9116 88.2787 42.8037 88.3589 42.6729C88.45 42.5335 88.4946 42.37 88.4867 42.2049C88.4933 42.0277 88.451 41.852 88.3642 41.6962C88.287 41.5625 88.1767 41.4497 88.0435 41.3681C87.9046 41.2817 87.7495 41.223 87.5873 41.1952C87.4157 41.161 87.2409 41.1448 87.0659 41.1468H85.851V43.212Z" fill="white"/>
<path opacity="0.75" d="M93.9958 44.0006C93.5673 44.005 93.1422 43.9272 92.7444 43.7717C92.378 43.6244 92.0443 43.4093 91.7616 43.1384C91.4779 42.8609 91.256 42.5293 91.1098 42.1643C90.9552 41.7769 90.8782 41.3642 90.883 40.9486C90.88 40.5314 90.9569 40.1173 91.1098 39.7277C91.2581 39.366 91.4798 39.0373 91.7616 38.7613C92.0416 38.4865 92.376 38.2702 92.7444 38.1254C93.548 37.8228 94.4383 37.8228 95.2419 38.1254C95.6119 38.2702 95.948 38.4865 96.23 38.7613C96.5088 39.0386 96.7285 39.3671 96.8765 39.7277C97.0339 40.1163 97.1126 40.5308 97.1085 40.9486C97.1128 41.3646 97.034 41.7776 96.8765 42.1643C96.7296 42.5277 96.5098 42.8589 96.23 43.1384C95.9449 43.4088 95.6095 43.6238 95.2419 43.7717C94.8461 43.9274 94.4226 44.0051 93.9958 44.0006V44.0006ZM93.9958 43.3597C94.3229 43.3645 94.6473 43.3012 94.9473 43.174C95.2288 43.0558 95.4826 42.8827 95.6929 42.6653C95.9049 42.4449 96.0698 42.1856 96.1778 41.9023C96.4047 41.2962 96.4047 40.6314 96.1778 40.0253C96.0677 39.7431 95.9031 39.4841 95.6929 39.2623C95.4723 39.036 95.206 38.8567 94.9108 38.7358C94.6123 38.6162 94.2924 38.5557 93.9697 38.5579C93.647 38.5601 93.328 38.6249 93.0312 38.7486C92.7496 38.8666 92.4958 39.0397 92.2856 39.2572C92.0783 39.4811 91.914 39.7395 91.8007 40.0202C91.5739 40.6263 91.5739 41.2911 91.8007 41.8972C91.9129 42.1785 92.0773 42.4371 92.2856 42.6602C92.496 42.8776 92.7497 43.0507 93.0312 43.1689C93.3318 43.3015 93.658 43.37 93.988 43.3698L93.9958 43.3597Z" fill="white"/>
<path opacity="0.75" d="M101.765 44.0006C101.339 44.0049 100.915 43.9272 100.519 43.7717C100.152 43.6238 99.8162 43.4088 99.5311 43.1384C99.2521 42.8582 99.0324 42.5272 98.8845 42.1643C98.727 41.7776 98.6482 41.3646 98.6525 40.9486C98.6497 40.5309 98.7284 40.1166 98.8845 39.7277C99.0325 39.3671 99.2523 39.0386 99.5311 38.7613C99.8131 38.4865 100.149 38.2702 100.519 38.1254C101.323 37.8228 102.213 37.8228 103.017 38.1254C103.386 38.2711 103.721 38.4882 104.002 38.7635C104.283 39.0389 104.504 39.3669 104.651 39.7277C104.808 40.1164 104.886 40.531 104.881 40.9486C104.886 41.3645 104.808 41.7774 104.651 42.1643C104.505 42.5293 104.283 42.8609 103.999 43.1384C103.717 43.4093 103.383 43.6244 103.017 43.7717C102.619 43.9276 102.194 44.0054 101.765 44.0006V44.0006ZM101.765 43.3597C102.094 43.3648 102.42 43.3015 102.722 43.174C103.004 43.0558 103.257 42.8827 103.468 42.6653C103.677 42.4428 103.841 42.184 103.953 41.9023C104.182 41.2966 104.182 40.631 103.953 40.0253C103.839 39.7446 103.675 39.4862 103.468 39.2623C103.257 39.0448 103.004 38.8716 102.722 38.7536C102.421 38.6261 102.096 38.5603 101.768 38.5603C101.44 38.5603 101.115 38.6261 100.814 38.7536C100.533 38.8723 100.28 39.0454 100.071 39.2623C99.8589 39.4833 99.6933 39.7425 99.5832 40.0253C99.3564 40.6314 99.3564 41.2962 99.5832 41.9023C99.6912 42.1862 99.857 42.4457 100.071 42.6653C100.28 42.8832 100.533 43.0564 100.814 43.174C101.114 43.3016 101.438 43.3666 101.765 43.3647V43.3597Z" fill="white"/>
<path opacity="0.75" d="M106.781 38.0434H107.483V40.5562H107.587L110.295 38.0332H111.338L108.392 40.6808L111.487 43.8626H110.444L107.563 40.9072H107.459V43.8626H106.758L106.781 38.0434Z" fill="white"/>
<path opacity="0.75" d="M112.836 38.0439H113.542V43.8631H112.836V38.0439Z" fill="white"/>
<path opacity="0.75" d="M115.781 38.0438H116.673L120.122 42.8609V38.0438H120.826V43.8629H119.984L116.535 39.0306V43.8629H115.831L115.781 38.0438Z" fill="white"/>
<path opacity="0.75" d="M128.153 43.4612C127.817 43.642 127.458 43.7772 127.084 43.863C126.708 43.9516 126.322 43.996 125.935 43.9953C125.497 44.0011 125.061 43.926 124.652 43.774C124.279 43.6344 123.939 43.4234 123.651 43.1534C123.363 42.8793 123.137 42.5492 122.989 42.1844C122.829 41.7894 122.749 41.3679 122.754 40.9433C122.749 40.5152 122.832 40.0905 122.999 39.6945C123.159 39.3312 123.392 39.0033 123.685 38.7305C123.99 38.4624 124.344 38.252 124.728 38.11C125.127 37.9624 125.552 37.8891 125.979 37.8938C126.364 37.8919 126.747 37.9494 127.113 38.0642C127.481 38.1819 127.815 38.3843 128.085 38.6542L127.564 39.1934C127.36 38.972 127.108 38.7982 126.826 38.6848C126.546 38.5696 126.244 38.51 125.94 38.5093C125.613 38.5067 125.29 38.5681 124.988 38.6898C124.702 38.8094 124.443 38.9822 124.224 39.1985C124.007 39.4178 123.835 39.6771 123.721 39.9615C123.482 40.582 123.482 41.2664 123.721 41.8868C123.839 42.1739 124.016 42.4339 124.243 42.6498C124.462 42.8732 124.729 43.0468 125.025 43.1585C125.344 43.2817 125.685 43.343 126.029 43.3391C126.283 43.3397 126.537 43.3106 126.785 43.2526C127.036 43.1987 127.278 43.1132 127.507 42.9983V41.2179H126.138V40.6075H128.205L128.153 43.4612Z" fill="white"/>
<path opacity="0.75" d="M133.212 39.0688C133.105 38.8877 132.94 38.7457 132.743 38.6644C132.549 38.5785 132.34 38.5342 132.127 38.5347C131.972 38.5349 131.817 38.5545 131.666 38.5932C131.518 38.6311 131.378 38.693 131.251 38.7763C131.125 38.8562 131.021 38.9669 130.952 39.0976C130.883 39.2283 130.849 39.3744 130.855 39.5215C130.853 39.6402 130.873 39.7584 130.915 39.8699C130.962 39.9766 131.033 40.0714 131.124 40.1471C131.241 40.2413 131.372 40.3176 131.512 40.3735C131.706 40.458 131.904 40.5311 132.107 40.5922C132.339 40.6609 132.56 40.7372 132.779 40.8186C132.983 40.8951 133.175 41.0005 133.347 41.1314C133.515 41.2579 133.651 41.4196 133.746 41.6045C133.846 41.8368 133.895 42.087 133.89 42.3389C133.884 42.5908 133.825 42.8389 133.715 43.0669C133.598 43.2667 133.439 43.4401 133.248 43.5756C133.045 43.7089 132.819 43.8062 132.581 43.863C132.156 43.9755 131.711 43.9946 131.277 43.9189C131.099 43.8912 130.924 43.8451 130.756 43.7816C130.596 43.7146 130.445 43.6292 130.305 43.5273C130.165 43.4241 130.043 43.2986 129.945 43.1559L130.55 42.6473C130.673 42.8669 130.863 43.0444 131.092 43.1559C131.321 43.261 131.57 43.3157 131.822 43.3162C131.978 43.3158 132.132 43.2935 132.281 43.25C132.43 43.2122 132.571 43.1475 132.696 43.0593C132.819 42.9747 132.922 42.8665 133.001 42.7414C133.082 42.6102 133.123 42.4595 133.121 42.3065C133.126 42.1554 133.094 42.0052 133.027 41.869C132.955 41.7523 132.858 41.6524 132.743 41.5765C132.579 41.4824 132.404 41.4081 132.221 41.3552L131.536 41.1289C131.332 41.0681 131.135 40.9915 130.944 40.9C130.772 40.8229 130.615 40.717 130.48 40.5871C130.344 40.4626 130.237 40.3119 130.164 40.1446C130.085 39.947 130.046 39.7362 130.05 39.524C130.057 39.2719 130.131 39.0259 130.263 38.8093C130.373 38.6086 130.528 38.4347 130.717 38.3007C130.913 38.1615 131.131 38.0557 131.364 37.9878C131.915 37.8336 132.503 37.8496 133.045 38.0336C133.334 38.1462 133.59 38.3281 133.788 38.5626L133.212 39.0688Z" fill="white"/>
</g>
</g>
<defs>
<linearGradient id="paint0_linear_119_84" x1="28.1199" y1="32.9672" x2="28.1199" y2="0.0664062" gradientUnits="userSpaceOnUse">
<stop stop-color="#A736E7"/>
<stop offset="1" stop-color="#5500E7"/>
</linearGradient>
<linearGradient id="paint1_linear_119_84" x1="45.8658" y1="11.5241" x2="23.679" y2="50.9326" gradientUnits="userSpaceOnUse">
<stop stop-color="#A4DC66"/>
<stop offset="1" stop-color="#43DC66"/>
</linearGradient>
<linearGradient id="paint2_linear_119_84" x1="19.9566" y1="22.2696" x2="7.08001" y2="45.1378" gradientUnits="userSpaceOnUse">
<stop stop-color="#05F3FF"/>
<stop offset="1" stop-color="#0068FF"/>
</linearGradient>
<linearGradient id="paint3_linear_119_84" x1="14.7504" y1="2.0375" x2="-2.01892" y2="31.8306" gradientUnits="userSpaceOnUse">
<stop stop-color="#A4DC66"/>
<stop offset="1" stop-color="#43DC66"/>
</linearGradient>
<clipPath id="clip0_119_84">
<rect width="134" height="44" fill="white"/>
</clipPath>
</defs>
</svg>
